<?xml version="1.0" encoding="UTF-8" standalone="no"?> <svg id="Layer_1" data-name="Layer 1" xmlns="http://www.w3.org/2000/svg" viewBox="0 0 128 128"><defs><style>.cls-1{fill:#1d75b8;}.cls-2{fill:#2d3e50;}</style></defs><title>n</title><path class="cls-1" d="M88.02109,68.49207a3.46225,3.46225,0,0,0,2.45656-1.01759l13.98823-13.98823a3.47433,3.47433,0,0,0-4.91324-4.91364L88.02135,60.10429l-4.59043-4.59056a3.47447,3.47447,0,1,0-4.91364,4.91364l7.04712,7.04712A3.463,3.463,0,0,0,88.02109,68.49207Z"/><path class="cls-1" d="M69.84388,50.85248a33.89015,33.89015,0,0,0-67.015,7.66139c.02179,1.48015-.39176,33.21371-.52234,43.66085a1.70252,1.70252,0,0,0,2.67708,1.41479L24.74646,89.72509A33.89592,33.89592,0,0,0,69.84388,50.85248ZM38.80682,73.40119a3.0298,3.0298,0,0,1-2.13308.89245,2.9639,2.9639,0,0,1-2.91646-2.93825A2.91228,2.91228,0,0,1,36.652,68.43867a2.87358,2.87358,0,0,1,2.98182,2.82958A2.97454,2.97454,0,0,1,38.80682,73.40119Zm3.15585-16.51971-.9141.8053a4.40463,4.40463,0,0,0-1.87178,2.91646c-.06536.97959-.13059,2.00249-.13059,3.13433a.65628.65628,0,0,1-.08715.457c-.02165.02179-.1088.10893-.47877.08715-.23939-.02179-.4789-.02179-.71829-.02179H36.52137c-.71816,0-1.45823,0-2.15473.02179-.3264,0-.41354-.08715-.41354-.39189-.06523-2.19831-.04344-4.70136.76186-6.4642a7.82836,7.82836,0,0,1,2.78588-2.98182,10.49326,10.49326,0,0,0,2.4159-2.19831,3.49829,3.49829,0,0,0,.5877-3.78712,4.399,4.399,0,0,0-3.91771-2.11116A4.67191,4.67191,0,0,0,32.016,49.89468c-.2176.71842-.28283.762-.56578.762-.15237,0-.32653-.02179-.5877-.04357-1.21885-.17429-2.43769-.32653-3.65654-.47877-.43533-.04357-.50069-.19608-.45712-.52234.4789-5.15861,5.48487-7.85747,10.1861-7.85747a10.76488,10.76488,0,0,1,7.07369,2.438A7.55447,7.55447,0,0,1,46.664,49.76422C46.64224,52.746,44.18276,54.92256,41.96267,56.88148Z"/><path class="cls-2" d="M125.19276,58.51387A33.86767,33.86767,0,0,0,68.42922,33.02665a38.13223,38.13223,0,0,1,3.67832,5.52844A27.33487,27.33487,0,0,1,118.6632,58.42673c-.02165,1.2405.21773,20.30683.39189,34.38912L104.16764,82.39023l-3.22121,1.21871a27.32051,27.32051,0,0,1-28.8171-6.0941c-.5877,1.04469-1.19719,2.04607-1.87191,3.04718-.56592.84861-1.17527,1.676-1.80642,2.45948a33.82325,33.82325,0,0,0,34.80253,6.70358L123.038,103.58951a1.68689,1.68689,0,0,0,2.65542-1.41479C125.56287,91.72759,125.17111,59.994,125.19276,58.51387Z"/></svg>